<svg id="visual" viewBox="0 0 1920 1080" width="1920" height="1080"
    xmlns="http://www.w3.org/2000/svg"
    xmlns:xlink="http://www.w3.org/1999/xlink" version="1.1">
    <path d="M0 185L29.2 197.5C58.3 210 116.7 235 174.8 235C233 235 291 210 349.2 215.5C407.3 221 465.7 257 523.8 291.2C582 325.3 640 357.7 698.2 359.3C756.3 361 814.7 332 872.8 326.5C931 321 989 339 1047.2 371.5C1105.3 404 1163.7 451 1221.8 436.7C1280 422.3 1338 346.7 1396.2 325C1454.3 303.3 1512.7 335.7 1570.8 328.5C1629 321.3 1687 274.7 1745.2 249.5C1803.3 224.3 1861.7 220.7 1890.8 218.8L1920 217L1920 0L1890.8 0C1861.7 0 1803.3 0 1745.2 0C1687 0 1629 0 1570.8 0C1512.7 0 1454.3 0 1396.2 0C1338 0 1280 0 1221.8 0C1163.7 0 1105.3 0 1047.2 0C989 0 931 0 872.8 0C814.7 0 756.3 0 698.2 0C640 0 582 0 523.8 0C465.7 0 407.3 0 349.2 0C291 0 233 0 174.8 0C116.7 0 58.3 0 29.2 0L0 0Z" fill="#120249"></path>
    <path d="M0 433L29.2 436.7C58.3 440.3 116.7 447.7 174.8 433.3C233 419 291 383 349.2 379.3C407.3 375.7 465.7 404.3 523.8 433C582 461.7 640 490.3 698.2 512C756.3 533.7 814.7 548.3 872.8 544.8C931 541.3 989 519.7 1047.2 532.2C1105.3 544.7 1163.7 591.3 1221.8 569.7C1280 548 1338 458 1396.2 447.2C1454.3 436.3 1512.7 504.7 1570.8 511.8C1629 519 1687 465 1745.2 434.5C1803.3 404 1861.7 397 1890.8 393.5L1920 390L1920 215L1890.8 216.8C1861.7 218.7 1803.3 222.3 1745.2 247.5C1687 272.7 1629 319.3 1570.8 326.5C1512.7 333.7 1454.3 301.3 1396.2 323C1338 344.7 1280 420.3 1221.8 434.7C1163.7 449 1105.3 402 1047.2 369.5C989 337 931 319 872.8 324.5C814.7 330 756.3 359 698.2 357.3C640 355.7 582 323.3 523.8 289.2C465.7 255 407.3 219 349.2 213.5C291 208 233 233 174.8 233C116.7 233 58.3 208 29.2 195.5L0 183Z" fill="#531e98"></path>
    <path d="M0 617L29.2 620.5C58.3 624 116.7 631 174.8 598.5C233 566 291 494 349.2 472.5C407.3 451 465.7 480 523.8 528.7C582 577.3 640 645.7 698.2 685.2C756.3 724.7 814.7 735.3 872.8 731.7C931 728 989 710 1047.2 713.7C1105.3 717.3 1163.7 742.7 1221.8 715.7C1280 688.7 1338 609.3 1396.2 594.8C1454.3 580.3 1512.7 630.7 1570.8 625.3C1629 620 1687 559 1745.2 526.7C1803.3 494.3 1861.7 490.7 1890.8 488.8L1920 487L1920 388L1890.8 391.5C1861.7 395 1803.3 402 1745.2 432.5C1687 463 1629 517 1570.8 509.8C1512.7 502.7 1454.3 434.3 1396.2 445.2C1338 456 1280 546 1221.8 567.7C1163.7 589.3 1105.3 542.7 1047.2 530.2C989 517.7 931 539.3 872.8 542.8C814.7 546.3 756.3 531.7 698.2 510C640 488.3 582 459.7 523.8 431C465.7 402.3 407.3 373.7 349.2 377.3C291 381 233 417 174.8 431.3C116.7 445.7 58.3 438.3 29.2 434.7L0 431Z" fill="#812eca"></path>
    <path d="M0 768L29.2 777C58.3 786 116.7 804 174.8 771.5C233 739 291 656 349.2 618.2C407.3 580.3 465.7 587.7 523.8 622C582 656.3 640 717.7 698.2 766.3C756.3 815 814.7 851 872.8 858.2C931 865.3 989 843.7 1047.2 834.7C1105.3 825.7 1163.7 829.3 1221.8 809.5C1280 789.7 1338 746.3 1396.2 744.5C1454.3 742.7 1512.7 782.3 1570.8 762.5C1629 742.7 1687 663.3 1745.2 634.5C1803.3 605.7 1861.7 627.3 1890.8 638.2L1920 649L1920 485L1890.8 486.8C1861.7 488.7 1803.3 492.3 1745.2 524.7C1687 557 1629 618 1570.8 623.3C1512.7 628.7 1454.3 578.3 1396.2 592.8C1338 607.3 1280 686.7 1221.8 713.7C1163.7 740.7 1105.3 715.3 1047.2 711.7C989 708 931 726 872.8 729.7C814.7 733.3 756.3 722.7 698.2 683.2C640 643.7 582 575.3 523.8 526.7C465.7 478 407.3 449 349.2 470.5C291 492 233 564 174.8 596.5C116.7 629 58.3 622 29.2 618.5L0 615Z" fill="#531e98"></path>
    <path d="M0 1081L29.2 1081C58.3 1081 116.7 1081 174.8 1081C233 1081 291 1081 349.2 1081C407.3 1081 465.7 1081 523.8 1081C582 1081 640 1081 698.2 1081C756.3 1081 814.7 1081 872.8 1081C931 1081 989 1081 1047.2 1081C1105.3 1081 1163.7 1081 1221.8 1081C1280 1081 1338 1081 1396.2 1081C1454.3 1081 1512.7 1081 1570.8 1081C1629 1081 1687 1081 1745.2 1081C1803.3 1081 1861.7 1081 1890.8 1081L1920 1081L1920 647L1890.8 636.2C1861.7 625.3 1803.3 603.7 1745.2 632.5C1687 661.3 1629 740.7 1570.8 760.5C1512.7 780.3 1454.3 740.7 1396.2 742.5C1338 744.3 1280 787.7 1221.8 807.5C1163.7 827.3 1105.3 823.7 1047.2 832.7C989 841.7 931 863.3 872.8 856.2C814.7 849 756.3 813 698.2 764.3C640 715.7 582 654.3 523.8 620C465.7 585.7 407.3 578.3 349.2 616.2C291 654 233 737 174.8 769.5C116.7 802 58.3 784 29.2 775L0 766Z" fill="#120249"></path>
</svg>