<svg width="1920" height="1080" viewBox="0 0 1920 1080" fill="none"
    xmlns="http://www.w3.org/2000/svg">
    <g clip-path="url(#clip0_17_42)">
        <rect width="1920" height="1080" fill="url(#paint0_linear_17_42)"/>
        <rect width="1920" height="1080" fill="black" fill-opacity="0.54"/>
        <g clip-path="url(#clip1_17_42)">
            <path d="M2350.78 1847.03C2117.53 2103.79 1762.25 1620.68 1336.39 1611.87C910.529 1603.05 599.399 1929.95 306.662 1804.73C13.9249 1679.51 -189.625 1249.05 -68.7498 1010.82C52.1254 772.595 565.839 874.115 886.863 661.229C1207.89 448.343 1145.27 47.6842 1472.17 -11.0275C1799.07 -69.7392 2272.95 -7.68294 2455.99 379.413" stroke="url(#paint1_linear_17_42)" stroke-width="2"/>
            <path d="M2316.84 1819.73C2090.65 2068.71 1746.13 1600.23 1333.18 1591.69C920.225 1583.14 618.523 1900.13 334.657 1778.71C50.7909 1657.28 -146.591 1239.87 -29.3786 1008.86C87.8338 777.85 585.98 876.293 897.276 669.859C1208.57 463.424 1147.85 74.9059 1464.84 17.9734C1781.84 -38.9592 2241.36 21.2166 2418.85 396.582" stroke="url(#paint2_linear_17_42)" stroke-width="2"/>
            <path d="M2282.89 1792.42C2063.77 2033.62 1730.02 1579.79 1329.97 1571.51C929.921 1563.23 637.648 1870.31 362.652 1752.68C87.6568 1635.06 -103.557 1230.69 9.99265 1006.9C123.542 783.104 606.121 878.472 907.69 678.488C1209.26 478.505 1150.43 102.128 1457.52 46.9743C1764.61 -8.17917 2209.77 50.1161 2381.72 413.752" stroke="url(#paint3_linear_17_42)" stroke-width="2"/>
            <path d="M2248.94 1765.12C2036.89 1998.54 1713.91 1559.34 1326.76 1551.33C939.618 1543.32 656.772 1840.5 390.647 1726.66C124.523 1612.83 -60.5227 1221.5 49.3639 1004.93C159.25 788.359 626.262 880.65 918.103 687.117C1209.94 493.585 1153.01 129.349 1450.2 75.975C1747.38 22.6008 2178.18 79.0156 2344.58 430.921" stroke="url(#paint4_linear_17_42)" stroke-width="2"/>
            <path d="M2214.99 1737.82C2010.01 1963.45 1697.79 1538.9 1323.55 1531.15C949.314 1523.41 675.896 1810.68 418.642 1700.64C161.389 1590.6 -17.4886 1212.32 88.7351 1002.97C194.959 793.614 646.404 882.828 928.516 695.747C1210.63 508.666 1155.6 156.571 1442.87 104.976C1730.15 53.3808 2146.59 107.915 2307.45 448.09" stroke="url(#paint5_linear_17_42)" stroke-width="2"/>
            <path d="M2181.04 1710.51C1983.13 1928.37 1681.68 1518.45 1320.34 1510.98C959.01 1503.5 695.021 1780.86 446.638 1674.62C198.255 1568.37 25.5455 1203.14 128.106 1001C230.667 798.869 666.545 885.007 938.929 704.376C1211.31 523.746 1158.18 183.793 1435.55 133.977C1712.92 84.1608 2115 136.815 2270.31 465.26" stroke="url(#paint6_linear_17_42)" stroke-width="2"/>
            <path d="M2147.1 1683.21C1956.25 1893.29 1665.57 1498.01 1317.14 1490.8C968.706 1483.59 714.145 1751.05 474.633 1648.6C235.121 1546.15 68.5797 1193.95 167.478 999.038C266.376 804.123 686.686 887.185 949.343 713.006C1212 538.826 1160.76 211.014 1428.23 162.978C1695.69 114.941 2083.41 165.714 2233.17 482.429" stroke="url(#paint7_linear_17_42)" stroke-width="2"/>
            <path d="M2113.15 1655.9C1929.37 1858.2 1649.45 1477.57 1313.93 1470.62C978.402 1463.68 733.269 1721.23 502.628 1622.57C271.987 1523.92 111.614 1184.77 206.849 997.074C302.084 809.378 706.828 889.363 959.756 721.635C1212.68 553.907 1163.35 238.236 1420.91 191.978C1678.46 145.721 2051.82 194.613 2196.04 499.598" stroke="url(#paint8_linear_17_42)" stroke-width="2"/>
            <path d="M2079.2 1628.6C1902.49 1823.12 1633.34 1457.12 1310.72 1450.44C988.097 1443.77 752.392 1691.41 530.622 1596.55C308.851 1501.69 154.647 1175.59 246.219 995.109C337.791 814.633 726.968 891.542 970.168 730.265C1213.37 568.987 1165.93 265.458 1413.58 220.979C1661.23 176.501 2020.23 223.513 2158.9 516.767" stroke="url(#paint9_linear_17_42)" stroke-width="2"/>
            <path d="M2045.25 1601.3C1875.62 1788.03 1617.23 1436.68 1307.51 1430.27C997.794 1423.86 771.518 1661.6 558.618 1570.53C345.718 1479.46 197.682 1166.4 285.591 993.145C373.501 819.887 747.11 893.72 980.583 738.894C1214.05 584.068 1168.51 292.68 1406.26 249.98C1644.01 207.281 1988.64 252.413 2121.77 533.937" stroke="url(#paint10_linear_17_42)" stroke-width="2"/>
            <path d="M2011.3 1573.99C1848.73 1752.95 1601.11 1416.23 1304.3 1410.09C1007.49 1403.95 790.641 1631.78 586.612 1544.51C382.583 1457.24 240.715 1157.22 324.962 991.18C409.208 825.142 767.25 895.898 990.995 747.523C1214.74 599.148 1171.09 319.901 1398.93 278.981C1626.77 238.061 1957.05 281.312 2084.63 551.106" stroke="url(#paint11_linear_17_42)" stroke-width="2"/>
            <path d="M1977.36 1546.69C1821.85 1717.86 1585 1395.79 1301.09 1389.91C1017.19 1384.03 809.765 1601.96 614.607 1518.49C419.449 1435.01 283.749 1148.04 364.333 989.216C444.916 830.397 787.392 898.077 1001.41 756.153C1215.42 614.229 1173.68 347.123 1391.61 307.982C1609.55 268.841 1925.46 310.211 2047.49 568.275" stroke="url(#paint12_linear_17_42)" stroke-width="2"/>
            <path d="M1943.41 1519.38C1794.98 1682.78 1568.88 1375.34 1297.88 1369.73C1026.88 1364.12 828.891 1572.15 642.603 1492.46C456.316 1412.78 326.784 1138.85 403.705 987.252C480.626 835.651 807.534 900.255 1011.82 764.782C1216.11 629.309 1176.26 374.345 1384.29 336.983C1592.32 299.621 1893.87 339.111 2010.36 585.445" stroke="url(#paint13_linear_17_42)" stroke-width="2"/>
            <path d="M1909.46 1492.08C1768.1 1647.69 1552.77 1354.9 1294.67 1349.55C1036.58 1344.21 848.014 1542.33 670.598 1466.44C493.181 1390.55 369.818 1129.67 443.075 985.287C516.333 840.906 827.674 902.433 1022.23 773.412C1216.79 644.39 1178.84 401.566 1376.96 365.983C1575.09 330.4 1862.28 368.01 1973.22 602.614" stroke="url(#paint14_linear_17_42)" stroke-width="2"/>
            <path d="M1875.51 1464.78C1741.22 1612.61 1536.66 1334.45 1291.47 1329.38C1046.27 1324.3 867.138 1512.51 698.593 1440.42C530.047 1368.33 412.852 1120.49 482.447 983.323C552.041 846.161 847.816 904.612 1032.65 782.041C1217.48 659.47 1181.43 428.788 1369.64 394.984C1557.86 361.181 1830.7 396.91 1936.08 619.783" stroke="url(#paint15_linear_17_42)" stroke-width="2"/>
            <path d="M1841.56 1437.47C1714.34 1577.52 1520.54 1314.01 1288.26 1309.2C1055.97 1304.39 886.263 1482.7 726.588 1414.4C566.913 1346.1 455.886 1111.3 521.818 981.359C587.75 851.415 867.957 906.79 1043.06 790.67C1218.17 674.551 1184.01 456.01 1362.32 423.985C1540.63 391.96 1799.11 425.809 1898.95 636.953" stroke="url(#paint16_linear_17_42)" stroke-width="2"/>
            <path d="M1807.62 1410.17C1687.46 1542.44 1504.43 1293.56 1285.05 1289.02C1065.67 1284.48 905.387 1452.88 754.583 1388.38C603.779 1323.87 498.92 1102.12 561.189 979.394C623.458 856.67 888.098 908.968 1053.47 799.3C1218.85 689.631 1186.59 483.231 1354.99 452.986C1523.4 422.74 1767.52 454.709 1861.81 654.122" stroke="url(#paint17_linear_17_42)" stroke-width="2"/>
            <path d="M1773.67 1382.86C1660.58 1507.35 1488.32 1273.12 1281.84 1268.84C1075.36 1264.57 924.511 1423.06 782.578 1362.35C640.645 1301.64 541.954 1092.93 600.56 977.43C659.166 861.925 908.239 911.147 1063.89 807.929C1219.54 704.712 1189.17 510.453 1347.67 481.987C1506.17 453.52 1735.93 483.608 1824.68 671.291" stroke="url(#paint18_linear_17_42)" stroke-width="2"/>
            <path d="M1739.72 1355.56C1633.7 1472.27 1472.2 1252.67 1278.63 1248.67C1085.06 1244.66 943.635 1393.25 810.573 1336.33C677.511 1279.41 584.988 1083.75 639.931 975.466C694.875 867.18 928.381 913.325 1074.3 816.559C1220.22 719.792 1191.76 537.675 1340.35 510.988C1488.94 484.3 1704.34 512.508 1787.54 688.46" stroke="url(#paint19_linear_17_42)" stroke-width="2"/>
            <path d="M1705.77 1328.26C1606.82 1437.19 1456.09 1232.23 1275.42 1228.49C1094.75 1224.75 962.76 1363.43 838.568 1310.31C714.377 1257.19 628.022 1074.57 679.303 973.501C730.583 872.434 948.522 915.503 1084.71 825.188C1220.91 734.873 1194.34 564.896 1333.03 539.988C1471.71 515.08 1672.75 541.407 1750.4 705.63" stroke="url(#paint20_linear_17_42)" stroke-width="2"/>
            <path d="M1671.82 1300.95C1579.94 1402.1 1439.98 1211.78 1272.21 1208.31C1104.45 1204.84 981.884 1333.62 866.563 1284.29C751.243 1234.96 671.056 1065.38 718.674 971.537C766.291 877.689 968.663 917.682 1095.13 833.818C1221.59 749.953 1196.92 592.118 1325.7 568.989C1454.48 545.86 1641.16 570.307 1713.27 722.799" stroke="url(#paint21_linear_17_42)" stroke-width="2"/>
            <path d="M1637.88 1273.65C1553.06 1367.02 1423.86 1191.34 1269 1188.13C1114.15 1184.93 1001.01 1303.8 894.559 1258.27C788.109 1212.73 714.091 1056.2 758.045 969.572C802 882.944 988.805 919.86 1105.54 842.447C1222.28 765.034 1199.51 619.34 1318.38 597.99C1437.25 576.64 1609.57 599.206 1676.13 739.968" stroke="url(#paint22_linear_17_42)" stroke-width="2"/>
            <path d="M1603.93 1246.34C1526.18 1331.93 1407.75 1170.89 1265.8 1167.96C1123.84 1165.02 1020.13 1273.98 922.554 1232.24C824.975 1190.5 757.125 1047.02 797.416 967.608C837.708 888.198 1008.95 922.038 1115.95 851.076C1222.96 780.115 1202.09 646.561 1311.06 626.991C1420.02 607.42 1577.98 628.106 1639 757.138" stroke="url(#paint23_linear_17_42)" stroke-width="2"/>
            <path d="M1569.98 1219.04C1499.3 1296.85 1391.64 1150.45 1262.59 1147.78C1133.54 1145.11 1039.26 1244.17 950.549 1206.22C861.841 1168.28 800.159 1037.83 836.788 965.644C873.416 893.453 1029.09 924.217 1126.37 859.706C1223.65 795.195 1204.67 673.783 1303.73 655.992C1402.79 638.2 1546.39 657.005 1601.86 774.307" stroke="url(#paint24_linear_17_42)" stroke-width="2"/>
            <path d="M1536.03 1191.74C1472.42 1261.76 1375.52 1130 1259.38 1127.6C1143.24 1125.2 1058.38 1214.35 978.544 1180.2C898.707 1146.05 843.193 1028.65 876.159 963.679C909.125 898.708 1049.23 926.395 1136.78 868.335C1224.33 810.275 1207.25 701.005 1296.41 684.992C1385.56 668.98 1514.8 685.905 1564.72 791.476" stroke="url(#paint25_linear_17_42)" stroke-width="2"/>
            <path d="M1502.08 1164.43C1445.54 1226.68 1359.41 1109.56 1256.17 1107.42C1152.93 1105.29 1077.51 1184.53 1006.54 1154.18C935.572 1123.82 886.227 1019.47 915.53 961.715C944.833 903.963 1069.37 928.573 1147.19 876.965C1225.02 825.356 1209.84 728.227 1289.09 713.993C1368.33 699.76 1483.21 714.804 1527.59 808.646" stroke="url(#paint26_linear_17_42)" stroke-width="2"/>
            <path d="M1468.14 1137.13C1418.66 1191.59 1343.29 1089.11 1252.96 1087.24C1162.63 1085.37 1096.63 1154.72 1034.53 1128.15C972.438 1101.59 929.261 1010.28 954.901 959.751C980.542 909.217 1089.51 930.752 1157.61 885.594C1225.7 840.436 1212.42 755.448 1281.76 742.994C1351.11 730.54 1451.62 743.704 1490.45 825.815" stroke="url(#paint27_linear_17_42)" stroke-width="2"/>
            <path d="M1434.19 1109.82C1391.78 1156.51 1327.18 1068.67 1249.75 1067.07C1172.32 1065.46 1115.75 1124.9 1062.53 1102.13C1009.3 1079.37 972.295 1001.1 994.273 957.786C1016.25 914.472 1109.65 932.93 1168.02 894.223C1226.39 855.517 1215 782.67 1274.44 771.995C1333.88 761.32 1420.04 772.603 1453.32 842.984" stroke="url(#paint28_linear_17_42)" stroke-width="2"/>
            <path d="M1400.24 1082.52C1364.9 1121.42 1311.07 1048.22 1246.54 1046.89C1182.02 1045.55 1134.88 1095.08 1090.52 1076.11C1046.17 1057.14 1015.33 991.917 1033.64 955.822C1051.96 919.726 1129.79 935.108 1178.43 902.853C1227.07 870.597 1217.59 809.891 1267.12 800.996C1316.65 792.1 1388.45 801.502 1416.18 860.153" stroke="url(#paint29_linear_17_42)" stroke-width="2"/>
            <path d="M1366.29 1055.22C1338.02 1086.34 1294.95 1027.78 1243.33 1026.71C1191.72 1025.64 1154 1065.27 1118.52 1050.09C1083.04 1034.91 1058.36 982.734 1073.02 953.857C1087.67 924.981 1149.93 937.287 1188.85 911.482C1227.76 885.678 1220.17 837.113 1259.79 829.997C1299.42 822.88 1356.86 830.402 1379.04 877.323" stroke="url(#paint30_linear_17_42)" stroke-width="2"/>
            <path d="M1332.34 1027.91C1311.14 1051.25 1278.84 1007.33 1240.13 1006.53C1201.41 1005.73 1173.13 1035.45 1146.51 1024.07C1119.9 1012.68 1101.4 973.55 1112.39 951.893C1123.37 930.236 1170.08 939.465 1199.26 920.112C1228.44 900.758 1222.75 864.335 1252.47 858.997C1282.19 853.66 1325.27 859.302 1341.91 894.492" stroke="url(#paint31_linear_17_42)" stroke-width="2"/>
            <path d="M1298.4 1000.61C1284.26 1016.17 1262.73 986.89 1236.92 986.355C1211.11 985.821 1192.25 1005.63 1174.51 998.044C1156.77 990.455 1144.43 964.367 1151.76 949.929C1159.08 935.491 1190.22 941.643 1209.67 928.741C1229.13 915.839 1225.33 891.557 1245.15 887.998C1264.96 884.44 1293.68 888.201 1304.77 911.661" stroke="url(#paint32_linear_17_42)" stroke-width="2"/>
            <path d="M1264.45 973.304C1257.38 981.085 1246.61 966.445 1233.71 966.178C1220.8 965.911 1211.37 975.817 1202.5 972.022C1193.63 968.228 1187.46 955.183 1191.13 947.964C1194.79 940.745 1210.36 943.822 1220.09 937.371C1229.81 930.92 1227.92 918.778 1237.82 916.999C1247.73 915.22 1262.09 917.101 1267.64 928.831" stroke="url(#paint33_linear_17_42)" stroke-width="2"/>
        </g>
    </g>
    <defs>
        <linearGradient id="paint0_linear_17_42" x1="2162.5" y1="-117" x2="-179.5" y2="1211.5" gradientUnits="userSpaceOnUse">
            <stop stop-color="#120249"/>
            <stop offset="1" stop-color="#120249"/>
        </linearGradient>
        <linearGradient id="paint1_linear_17_42" x1="133368" y1="-30.1513" x2="133368" y2="195200" gradientUnits="userSpaceOnUse">
            <stop offset="0.45" stop-color="#9D5AD7"/>
            <stop offset="1" stop-color="#430694"/>
        </linearGradient>
        <linearGradient id="paint2_linear_17_42" x1="129364" y1="-0.570892" x2="129364" y2="189314" gradientUnits="userSpaceOnUse">
            <stop offset="0.45" stop-color="#9D5AD7"/>
            <stop offset="1" stop-color="#430694"/>
        </linearGradient>
        <linearGradient id="paint3_linear_17_42" x1="125360" y1="29.0095" x2="125360" y2="183427" gradientUnits="userSpaceOnUse">
            <stop offset="0.45" stop-color="#9D5AD7"/>
            <stop offset="1" stop-color="#430694"/>
        </linearGradient>
        <linearGradient id="paint4_linear_17_42" x1="121356" y1="58.5898" x2="121356" y2="177541" gradientUnits="userSpaceOnUse">
            <stop offset="0.45" stop-color="#9D5AD7"/>
            <stop offset="1" stop-color="#430694"/>
        </linearGradient>
        <linearGradient id="paint5_linear_17_42" x1="117352" y1="88.1702" x2="117352" y2="171654" gradientUnits="userSpaceOnUse">
            <stop offset="0.45" stop-color="#9D5AD7"/>
            <stop offset="1" stop-color="#430694"/>
        </linearGradient>
        <linearGradient id="paint6_linear_17_42" x1="113348" y1="117.751" x2="113348" y2="165768" gradientUnits="userSpaceOnUse">
            <stop offset="0.45" stop-color="#9D5AD7"/>
            <stop offset="1" stop-color="#430694"/>
        </linearGradient>
        <linearGradient id="paint7_linear_17_42" x1="109343" y1="147.331" x2="109343" y2="159881" gradientUnits="userSpaceOnUse">
            <stop offset="0.45" stop-color="#9D5AD7"/>
            <stop offset="1" stop-color="#430694"/>
        </linearGradient>
        <linearGradient id="paint8_linear_17_42" x1="105339" y1="176.911" x2="105339" y2="153995" gradientUnits="userSpaceOnUse">
            <stop offset="0.45" stop-color="#9D5AD7"/>
            <stop offset="1" stop-color="#430694"/>
        </linearGradient>
        <linearGradient id="paint9_linear_17_42" x1="101335" y1="206.491" x2="101335" y2="148108" gradientUnits="userSpaceOnUse">
            <stop offset="0.45" stop-color="#9D5AD7"/>
            <stop offset="1" stop-color="#430694"/>
        </linearGradient>
        <linearGradient id="paint10_linear_17_42" x1="97330.8" y1="236.072" x2="97330.8" y2="142222" gradientUnits="userSpaceOnUse">
            <stop offset="0.45" stop-color="#9D5AD7"/>
            <stop offset="1" stop-color="#430694"/>
        </linearGradient>
        <linearGradient id="paint11_linear_17_42" x1="93326.6" y1="265.652" x2="93326.6" y2="136335" gradientUnits="userSpaceOnUse">
            <stop offset="0.45" stop-color="#9D5AD7"/>
            <stop offset="1" stop-color="#430694"/>
        </linearGradient>
        <linearGradient id="paint12_linear_17_42" x1="89322.4" y1="295.232" x2="89322.4" y2="130449" gradientUnits="userSpaceOnUse">
            <stop offset="0.45" stop-color="#9D5AD7"/>
            <stop offset="1" stop-color="#430694"/>
        </linearGradient>
        <linearGradient id="paint13_linear_17_42" x1="85318.2" y1="324.813" x2="85318.2" y2="124562" gradientUnits="userSpaceOnUse">
            <stop offset="0.45" stop-color="#9D5AD7"/>
            <stop offset="1" stop-color="#430694"/>
        </linearGradient>
        <linearGradient id="paint14_linear_17_42" x1="81314.1" y1="354.393" x2="81314.1" y2="118676" gradientUnits="userSpaceOnUse">
            <stop offset="0.45" stop-color="#9D5AD7"/>
            <stop offset="1" stop-color="#430694"/>
        </linearGradient>
        <linearGradient id="paint15_linear_17_42" x1="77309.9" y1="383.974" x2="77309.9" y2="112789" gradientUnits="userSpaceOnUse">
            <stop offset="0.45" stop-color="#9D5AD7"/>
            <stop offset="1" stop-color="#430694"/>
        </linearGradient>
        <linearGradient id="paint16_linear_17_42" x1="73305.7" y1="413.554" x2="73305.7" y2="106903" gradientUnits="userSpaceOnUse">
            <stop offset="0.45" stop-color="#9D5AD7"/>
            <stop offset="1" stop-color="#430694"/>
        </linearGradient>
        <linearGradient id="paint17_linear_17_42" x1="69301.5" y1="443.134" x2="69301.5" y2="101016" gradientUnits="userSpaceOnUse">
            <stop offset="0.45" stop-color="#9D5AD7"/>
            <stop offset="1" stop-color="#430694"/>
        </linearGradient>
        <linearGradient id="paint18_linear_17_42" x1="65297.4" y1="472.715" x2="65297.4" y2="95129.8" gradientUnits="userSpaceOnUse">
            <stop offset="0.45" stop-color="#9D5AD7"/>
            <stop offset="1" stop-color="#430694"/>
        </linearGradient>
        <linearGradient id="paint19_linear_17_42" x1="61293.2" y1="502.295" x2="61293.2" y2="89243.3" gradientUnits="userSpaceOnUse">
            <stop offset="0.45" stop-color="#9D5AD7"/>
            <stop offset="1" stop-color="#430694"/>
        </linearGradient>
        <linearGradient id="paint20_linear_17_42" x1="57289" y1="531.875" x2="57289" y2="83356.8" gradientUnits="userSpaceOnUse">
            <stop offset="0.45" stop-color="#9D5AD7"/>
            <stop offset="1" stop-color="#430694"/>
        </linearGradient>
        <linearGradient id="paint21_linear_17_42" x1="53284.8" y1="561.456" x2="53284.8" y2="77470.3" gradientUnits="userSpaceOnUse">
            <stop offset="0.45" stop-color="#9D5AD7"/>
            <stop offset="1" stop-color="#430694"/>
        </linearGradient>
        <linearGradient id="paint22_linear_17_42" x1="49280.6" y1="591.036" x2="49280.6" y2="71583.9" gradientUnits="userSpaceOnUse">
            <stop offset="0.45" stop-color="#9D5AD7"/>
            <stop offset="1" stop-color="#430694"/>
        </linearGradient>
        <linearGradient id="paint23_linear_17_42" x1="45276.5" y1="620.616" x2="45276.5" y2="65697.4" gradientUnits="userSpaceOnUse">
            <stop offset="0.45" stop-color="#9D5AD7"/>
            <stop offset="1" stop-color="#430694"/>
        </linearGradient>
        <linearGradient id="paint24_linear_17_42" x1="41272.3" y1="650.197" x2="41272.3" y2="59810.9" gradientUnits="userSpaceOnUse">
            <stop offset="0.45" stop-color="#9D5AD7"/>
            <stop offset="1" stop-color="#430694"/>
        </linearGradient>
        <linearGradient id="paint25_linear_17_42" x1="37268.1" y1="679.777" x2="37268.1" y2="53924.4" gradientUnits="userSpaceOnUse">
            <stop offset="0.45" stop-color="#9D5AD7"/>
            <stop offset="1" stop-color="#430694"/>
        </linearGradient>
        <linearGradient id="paint26_linear_17_42" x1="33263.9" y1="709.357" x2="33263.9" y2="48037.9" gradientUnits="userSpaceOnUse">
            <stop offset="0.45" stop-color="#9D5AD7"/>
            <stop offset="1" stop-color="#430694"/>
        </linearGradient>
        <linearGradient id="paint27_linear_17_42" x1="29259.8" y1="738.938" x2="29259.8" y2="42151.4" gradientUnits="userSpaceOnUse">
            <stop offset="0.45" stop-color="#9D5AD7"/>
            <stop offset="1" stop-color="#430694"/>
        </linearGradient>
        <linearGradient id="paint28_linear_17_42" x1="25255.6" y1="768.518" x2="25255.6" y2="36264.9" gradientUnits="userSpaceOnUse">
            <stop offset="0.45" stop-color="#9D5AD7"/>
            <stop offset="1" stop-color="#430694"/>
        </linearGradient>
        <linearGradient id="paint29_linear_17_42" x1="21251.4" y1="798.098" x2="21251.4" y2="30378.4" gradientUnits="userSpaceOnUse">
            <stop offset="0.45" stop-color="#9D5AD7"/>
            <stop offset="1" stop-color="#430694"/>
        </linearGradient>
        <linearGradient id="paint30_linear_17_42" x1="17247.2" y1="827.679" x2="17247.2" y2="24491.9" gradientUnits="userSpaceOnUse">
            <stop offset="0.45" stop-color="#9D5AD7"/>
            <stop offset="1" stop-color="#430694"/>
        </linearGradient>
        <linearGradient id="paint31_linear_17_42" x1="13243" y1="857.259" x2="13243" y2="18605.5" gradientUnits="userSpaceOnUse">
            <stop offset="0.45" stop-color="#9D5AD7"/>
            <stop offset="1" stop-color="#430694"/>
        </linearGradient>
        <linearGradient id="paint32_linear_17_42" x1="9238.86" y1="886.839" x2="9238.86" y2="12719" gradientUnits="userSpaceOnUse">
            <stop offset="0.45" stop-color="#9D5AD7"/>
            <stop offset="1" stop-color="#430694"/>
        </linearGradient>
        <linearGradient id="paint33_linear_17_42" x1="5234.68" y1="916.42" x2="5234.68" y2="6832.49" gradientUnits="userSpaceOnUse">
            <stop offset="0.45" stop-color="#9D5AD7"/>
            <stop offset="1" stop-color="#430694"/>
        </linearGradient>
        <clipPath id="clip0_17_42">
            <rect width="1920" height="1080" fill="white"/>
        </clipPath>
        <clipPath id="clip1_17_42">
            <rect width="2489" height="1892" fill="white" transform="translate(-14)"/>
        </clipPath>
    </defs>
</svg>
