<svg width="1920" height="1080" viewBox="0 0 1920 1080" fill="none"
    xmlns="http://www.w3.org/2000/svg">
    <g clip-path="url(#clip0_16_276)">
        <rect width="1920" height="1080" fill="url(#paint0_linear_16_276)"/>
        <rect width="1920" height="1080" fill="black" fill-opacity="0.54"/>
        <g clip-path="url(#clip1_16_276)">
            <path opacity="0.14" d="M0 1072.97C320 250.368 640 64.0683 960 514.068C1280 964.068 1600 1150.37 1920 1072.97" stroke="url(#paint1_linear_16_276)" stroke-width="2" stroke-linecap="round"/>
            <path opacity="0.54" d="M0 1043.27C320 240.468 640 64.0683 960 514.068C1280 964.068 1600 1140.47 1920 1043.27" stroke="url(#paint2_linear_16_276)" stroke-width="2" stroke-linecap="round"/>
            <path opacity="0.28" d="M0 1013.57C320 230.568 640 64.0683 960 514.068C1280 964.068 1600 1130.57 1920 1013.57" stroke="url(#paint3_linear_16_276)" stroke-width="2" stroke-linecap="round"/>
            <path opacity="0.96" d="M0 983.868C320 220.668 640 64.0683 960 514.068C1280 964.068 1600 1120.67 1920 983.868" stroke="url(#paint4_linear_16_276)" stroke-width="2" stroke-linecap="round"/>
            <path opacity="0.93" d="M0 954.168C320 210.768 640 64.0683 960 514.068C1280 964.068 1600 1110.77 1920 954.168" stroke="url(#paint5_linear_16_276)" stroke-width="2" stroke-linecap="round"/>
            <path opacity="0.52" d="M0 924.468C320 200.868 640 64.0683 960 514.068C1280 964.068 1600 1100.87 1920 924.468" stroke="url(#paint6_linear_16_276)" stroke-width="2" stroke-linecap="round"/>
            <path opacity="0.41" d="M0 894.768C320 190.968 640 64.0683 960 514.068C1280 964.068 1600 1090.97 1920 894.768" stroke="url(#paint7_linear_16_276)" stroke-width="2" stroke-linecap="round"/>
            <path opacity="0.84" d="M0 865.068C320 181.068 640 64.0683 960 514.068C1280 964.068 1600 1081.07 1920 865.068" stroke="url(#paint8_linear_16_276)" stroke-width="2" stroke-linecap="round"/>
            <path opacity="0.25" d="M0 835.368C320 171.168 640 64.0683 960 514.068C1280 964.068 1600 1071.17 1920 835.368" stroke="url(#paint9_linear_16_276)" stroke-width="2" stroke-linecap="round"/>
            <path opacity="0.46" d="M0 805.668C320 161.268 640 64.0683 960 514.068C1280 964.068 1600 1061.27 1920 805.668" stroke="url(#paint10_linear_16_276)" stroke-width="2" stroke-linecap="round"/>
            <path opacity="0.87" d="M0 775.968C320 151.368 640 64.0683 960 514.068C1280 964.068 1600 1051.37 1920 775.968" stroke="url(#paint11_linear_16_276)" stroke-width="2" stroke-linecap="round"/>
            <path opacity="0.96" d="M0 746.268C320 141.468 640 64.0683 960 514.068C1280 964.068 1600 1041.47 1920 746.268" stroke="url(#paint12_linear_16_276)" stroke-width="2" stroke-linecap="round"/>
            <path opacity="0.98" d="M0 716.568C320 131.568 640 64.0683 960 514.068C1280 964.068 1600 1031.57 1920 716.568" stroke="url(#paint13_linear_16_276)" stroke-width="2" stroke-linecap="round"/>
            <path opacity="0.15" d="M0 686.868C320 121.668 640 64.0683 960 514.068C1280 964.068 1600 1021.67 1920 686.868" stroke="url(#paint14_linear_16_276)" stroke-width="2" stroke-linecap="round"/>
            <path opacity="0.21" d="M0 657.168C320 111.768 640 64.0683 960 514.068C1280 964.068 1600 1011.77 1920 657.168" stroke="url(#paint15_linear_16_276)" stroke-width="2" stroke-linecap="round"/>
            <path opacity="0.46" d="M0 627.468C320 101.868 640 64.0683 960 514.068C1280 964.068 1600 1001.87 1920 627.468" stroke="url(#paint16_linear_16_276)" stroke-width="2" stroke-linecap="round"/>
            <path opacity="0.52" d="M0 597.768C320 91.9684 640 64.0683 960 514.068C1280 964.068 1600 991.968 1920 597.768" stroke="url(#paint17_linear_16_276)" stroke-width="2" stroke-linecap="round"/>
            <path opacity="0.35" d="M0 568.068C320 82.0683 640 64.0683 960 514.068C1280 964.068 1600 982.068 1920 568.068" stroke="url(#paint18_linear_16_276)" stroke-width="2" stroke-linecap="round"/>
            <path opacity="0.97" d="M0 538.368C320 72.1683 640 64.0683 960 514.068C1280 964.068 1600 972.168 1920 538.368" stroke="url(#paint19_linear_16_276)" stroke-width="2" stroke-linecap="round"/>
            <path opacity="0.11" d="M0 508.668C320 62.2683 640 64.0683 960 514.068C1280 964.068 1600 962.268 1920 508.668" stroke="url(#paint20_linear_16_276)" stroke-width="2" stroke-linecap="round"/>
            <path opacity="0.24" d="M0 478.968C320 52.3683 640 64.0683 960 514.068C1280 964.068 1600 952.368 1920 478.968" stroke="url(#paint21_linear_16_276)" stroke-width="2" stroke-linecap="round"/>
            <path opacity="0.31" d="M0 449.268C320 42.4683 640 64.0683 960 514.068C1280 964.068 1600 942.468 1920 449.268" stroke="url(#paint22_linear_16_276)" stroke-width="2" stroke-linecap="round"/>
            <path opacity="0.9" d="M0 419.568C320 32.5683 640 64.0683 960 514.068C1280 964.068 1600 932.568 1920 419.568" stroke="url(#paint23_linear_16_276)" stroke-width="2" stroke-linecap="round"/>
            <path opacity="0.16" d="M0 389.868C320 22.6684 640 64.0684 960 514.068C1280 964.068 1600 922.668 1920 389.868" stroke="url(#paint24_linear_16_276)" stroke-width="2" stroke-linecap="round"/>
            <path opacity="0.35" d="M0 360.168C320 12.7683 640 64.0683 960 514.068C1280 964.068 1600 912.768 1920 360.168" stroke="url(#paint25_linear_16_276)" stroke-width="2" stroke-linecap="round"/>
            <path opacity="0.42" d="M0 330.468C320 2.86829 640 64.0683 960 514.068C1280 964.068 1600 902.868 1920 330.468" stroke="url(#paint26_linear_16_276)" stroke-width="2" stroke-linecap="round"/>
            <path opacity="0.82" d="M0 300.768C320 -7.03167 640 64.0683 960 514.068C1280 964.068 1600 892.968 1920 300.768" stroke="url(#paint27_linear_16_276)" stroke-width="2" stroke-linecap="round"/>
            <path opacity="0.32" d="M0 271.068C320 -16.9317 640 64.0683 960 514.068C1280 964.068 1600 883.068 1920 271.068" stroke="url(#paint28_linear_16_276)" stroke-width="2" stroke-linecap="round"/>
            <path opacity="0.41" d="M0 241.368C320 -26.8317 640 64.0683 960 514.068C1280 964.068 1600 873.168 1920 241.368" stroke="url(#paint29_linear_16_276)" stroke-width="2" stroke-linecap="round"/>
            <path opacity="0.65" d="M0 211.668C320 -36.7317 640 64.0683 960 514.068C1280 964.068 1600 863.268 1920 211.668" stroke="url(#paint30_linear_16_276)" stroke-width="2" stroke-linecap="round"/>
            <path opacity="0.42" d="M0 181.968C320 -46.6317 640 64.0683 960 514.068C1280 964.068 1600 853.368 1920 181.968" stroke="url(#paint31_linear_16_276)" stroke-width="2" stroke-linecap="round"/>
            <path opacity="0.84" d="M0 152.268C320 -56.5317 640 64.0683 960 514.068C1280 964.068 1600 843.468 1920 152.268" stroke="url(#paint32_linear_16_276)" stroke-width="2" stroke-linecap="round"/>
            <path opacity="0.48" d="M0 122.568C320 -66.4317 640 64.0683 960 514.068C1280 964.068 1600 833.568 1920 122.568" stroke="url(#paint33_linear_16_276)" stroke-width="2" stroke-linecap="round"/>
            <path opacity="0.48" d="M0 92.8683C320 -76.3317 640 64.0683 960 514.068C1280 964.068 1600 823.668 1920 92.8683" stroke="url(#paint34_linear_16_276)" stroke-width="2" stroke-linecap="round"/>
            <path opacity="0.94" d="M0 63.1683C320 -86.2317 640 64.0683 960 514.068C1280 964.068 1600 813.768 1920 63.1683" stroke="url(#paint35_linear_16_276)" stroke-width="2" stroke-linecap="round"/>
            <path opacity="0.7" d="M0 33.4683C320 -96.1317 640 64.0683 960 514.068C1280 964.068 1600 803.868 1920 33.4683" stroke="url(#paint36_linear_16_276)" stroke-width="2" stroke-linecap="round"/>
        </g>
    </g>
    <defs>
        <linearGradient id="paint0_linear_16_276" x1="2162.5" y1="-117" x2="-179.5" y2="1211.5" gradientUnits="userSpaceOnUse">
            <stop stop-color="#120249"/>
            <stop offset="1" stop-color="#120249"/>
        </linearGradient>
        <linearGradient id="paint1_linear_16_276" x1="96000" y1="275.384" x2="96000" y2="81737.7" gradientUnits="userSpaceOnUse">
            <stop stop-color="#430694"/>
            <stop offset="1" stop-color="#9D5AD7"/>
        </linearGradient>
        <linearGradient id="paint2_linear_16_276" x1="96000" y1="271.611" x2="96000" y2="80027.2" gradientUnits="userSpaceOnUse">
            <stop stop-color="#430694"/>
            <stop offset="1" stop-color="#9D5AD7"/>
        </linearGradient>
        <linearGradient id="paint3_linear_16_276" x1="96000" y1="267.718" x2="96000" y2="78474.2" gradientUnits="userSpaceOnUse">
            <stop stop-color="#430694"/>
            <stop offset="1" stop-color="#9D5AD7"/>
        </linearGradient>
        <linearGradient id="paint4_linear_16_276" x1="96000" y1="263.697" x2="96000" y2="77064.6" gradientUnits="userSpaceOnUse">
            <stop stop-color="#430694"/>
            <stop offset="1" stop-color="#9D5AD7"/>
        </linearGradient>
        <linearGradient id="paint5_linear_16_276" x1="96000" y1="259.543" x2="96000" y2="75786.2" gradientUnits="userSpaceOnUse">
            <stop stop-color="#430694"/>
            <stop offset="1" stop-color="#9D5AD7"/>
        </linearGradient>
        <linearGradient id="paint6_linear_16_276" x1="96000" y1="255.249" x2="96000" y2="74628.5" gradientUnits="userSpaceOnUse">
            <stop stop-color="#430694"/>
            <stop offset="1" stop-color="#9D5AD7"/>
        </linearGradient>
        <linearGradient id="paint7_linear_16_276" x1="96000" y1="250.808" x2="96000" y2="73582.4" gradientUnits="userSpaceOnUse">
            <stop stop-color="#430694"/>
            <stop offset="1" stop-color="#9D5AD7"/>
        </linearGradient>
        <linearGradient id="paint8_linear_16_276" x1="96000" y1="246.211" x2="96000" y2="72640" gradientUnits="userSpaceOnUse">
            <stop stop-color="#430694"/>
            <stop offset="1" stop-color="#9D5AD7"/>
        </linearGradient>
        <linearGradient id="paint9_linear_16_276" x1="96000" y1="241.451" x2="96000" y2="71794.5" gradientUnits="userSpaceOnUse">
            <stop stop-color="#430694"/>
            <stop offset="1" stop-color="#9D5AD7"/>
        </linearGradient>
        <linearGradient id="paint10_linear_16_276" x1="96000" y1="236.519" x2="96000" y2="71039.9" gradientUnits="userSpaceOnUse">
            <stop stop-color="#430694"/>
            <stop offset="1" stop-color="#9D5AD7"/>
        </linearGradient>
        <linearGradient id="paint11_linear_16_276" x1="96000" y1="231.405" x2="96000" y2="70371.2" gradientUnits="userSpaceOnUse">
            <stop stop-color="#430694"/>
            <stop offset="1" stop-color="#9D5AD7"/>
        </linearGradient>
        <linearGradient id="paint12_linear_16_276" x1="96000" y1="226.099" x2="96000" y2="69783.9" gradientUnits="userSpaceOnUse">
            <stop stop-color="#430694"/>
            <stop offset="1" stop-color="#9D5AD7"/>
        </linearGradient>
        <linearGradient id="paint13_linear_16_276" x1="96000" y1="220.59" x2="96000" y2="69274.3" gradientUnits="userSpaceOnUse">
            <stop stop-color="#430694"/>
            <stop offset="1" stop-color="#9D5AD7"/>
        </linearGradient>
        <linearGradient id="paint14_linear_16_276" x1="96000" y1="214.866" x2="96000" y2="68839.2" gradientUnits="userSpaceOnUse">
            <stop stop-color="#430694"/>
            <stop offset="1" stop-color="#9D5AD7"/>
        </linearGradient>
        <linearGradient id="paint15_linear_16_276" x1="96000" y1="208.915" x2="96000" y2="68476" gradientUnits="userSpaceOnUse">
            <stop stop-color="#430694"/>
            <stop offset="1" stop-color="#9D5AD7"/>
        </linearGradient>
        <linearGradient id="paint16_linear_16_276" x1="96000" y1="202.721" x2="96000" y2="68182.4" gradientUnits="userSpaceOnUse">
            <stop stop-color="#430694"/>
            <stop offset="1" stop-color="#9D5AD7"/>
        </linearGradient>
        <linearGradient id="paint17_linear_16_276" x1="96000" y1="196.272" x2="96000" y2="67956.7" gradientUnits="userSpaceOnUse">
            <stop stop-color="#430694"/>
            <stop offset="1" stop-color="#9D5AD7"/>
        </linearGradient>
        <linearGradient id="paint18_linear_16_276" x1="96000" y1="189.549" x2="96000" y2="67797.7" gradientUnits="userSpaceOnUse">
            <stop stop-color="#430694"/>
            <stop offset="1" stop-color="#9D5AD7"/>
        </linearGradient>
        <linearGradient id="paint19_linear_16_276" x1="96000" y1="182.536" x2="96000" y2="67704.4" gradientUnits="userSpaceOnUse">
            <stop stop-color="#430694"/>
            <stop offset="1" stop-color="#9D5AD7"/>
        </linearGradient>
        <linearGradient id="paint20_linear_16_276" x1="96000" y1="175.213" x2="96000" y2="67676.3" gradientUnits="userSpaceOnUse">
            <stop stop-color="#430694"/>
            <stop offset="1" stop-color="#9D5AD7"/>
        </linearGradient>
        <linearGradient id="paint21_linear_16_276" x1="96000" y1="167.559" x2="96000" y2="67713.2" gradientUnits="userSpaceOnUse">
            <stop stop-color="#430694"/>
            <stop offset="1" stop-color="#9D5AD7"/>
        </linearGradient>
        <linearGradient id="paint22_linear_16_276" x1="96000" y1="159.552" x2="96000" y2="67815.4" gradientUnits="userSpaceOnUse">
            <stop stop-color="#430694"/>
            <stop offset="1" stop-color="#9D5AD7"/>
        </linearGradient>
        <linearGradient id="paint23_linear_16_276" x1="96000" y1="151.165" x2="96000" y2="67983.6" gradientUnits="userSpaceOnUse">
            <stop stop-color="#430694"/>
            <stop offset="1" stop-color="#9D5AD7"/>
        </linearGradient>
        <linearGradient id="paint24_linear_16_276" x1="96000" y1="142.372" x2="96000" y2="68218.6" gradientUnits="userSpaceOnUse">
            <stop stop-color="#430694"/>
            <stop offset="1" stop-color="#9D5AD7"/>
        </linearGradient>
        <linearGradient id="paint25_linear_16_276" x1="96000" y1="133.143" x2="96000" y2="68521.9" gradientUnits="userSpaceOnUse">
            <stop stop-color="#430694"/>
            <stop offset="1" stop-color="#9D5AD7"/>
        </linearGradient>
        <linearGradient id="paint26_linear_16_276" x1="96000" y1="123.443" x2="96000" y2="68895.5" gradientUnits="userSpaceOnUse">
            <stop stop-color="#430694"/>
            <stop offset="1" stop-color="#9D5AD7"/>
        </linearGradient>
        <linearGradient id="paint27_linear_16_276" x1="96000" y1="113.237" x2="96000" y2="69341.4" gradientUnits="userSpaceOnUse">
            <stop stop-color="#430694"/>
            <stop offset="1" stop-color="#9D5AD7"/>
        </linearGradient>
        <linearGradient id="paint28_linear_16_276" x1="96000" y1="102.483" x2="96000" y2="69862.7" gradientUnits="userSpaceOnUse">
            <stop stop-color="#430694"/>
            <stop offset="1" stop-color="#9D5AD7"/>
        </linearGradient>
        <linearGradient id="paint29_linear_16_276" x1="96000" y1="91.136" x2="96000" y2="70462.6" gradientUnits="userSpaceOnUse">
            <stop stop-color="#430694"/>
            <stop offset="1" stop-color="#9D5AD7"/>
        </linearGradient>
        <linearGradient id="paint30_linear_16_276" x1="96000" y1="79.1457" x2="96000" y2="71144.9" gradientUnits="userSpaceOnUse">
            <stop stop-color="#430694"/>
            <stop offset="1" stop-color="#9D5AD7"/>
        </linearGradient>
        <linearGradient id="paint31_linear_16_276" x1="96000" y1="66.4556" x2="96000" y2="71914.4" gradientUnits="userSpaceOnUse">
            <stop stop-color="#430694"/>
            <stop offset="1" stop-color="#9D5AD7"/>
        </linearGradient>
        <linearGradient id="paint32_linear_16_276" x1="96000" y1="53.0027" x2="96000" y2="72776.3" gradientUnits="userSpaceOnUse">
            <stop stop-color="#430694"/>
            <stop offset="1" stop-color="#9D5AD7"/>
        </linearGradient>
        <linearGradient id="paint33_linear_16_276" x1="96000" y1="38.7162" x2="96000" y2="73736.7" gradientUnits="userSpaceOnUse">
            <stop stop-color="#430694"/>
            <stop offset="1" stop-color="#9D5AD7"/>
        </linearGradient>
        <linearGradient id="paint34_linear_16_276" x1="96000" y1="23.516" x2="96000" y2="74802.8" gradientUnits="userSpaceOnUse">
            <stop stop-color="#430694"/>
            <stop offset="1" stop-color="#9D5AD7"/>
        </linearGradient>
        <linearGradient id="paint35_linear_16_276" x1="96000" y1="7.31155" x2="96000" y2="75982.8" gradientUnits="userSpaceOnUse">
            <stop stop-color="#430694"/>
            <stop offset="1" stop-color="#9D5AD7"/>
        </linearGradient>
        <linearGradient id="paint36_linear_16_276" x1="96000" y1="-10" x2="96000" y2="77286.2" gradientUnits="userSpaceOnUse">
            <stop stop-color="#430694"/>
            <stop offset="1" stop-color="#9D5AD7"/>
        </linearGradient>
        <clipPath id="clip0_16_276">
            <rect width="1920" height="1080" fill="white"/>
        </clipPath>
        <clipPath id="clip1_16_276">
            <rect width="1920" height="1080" fill="white"/>
        </clipPath>
    </defs>
</svg>
